<svg width="692.8" height="104.002" viewBox="0 0 692.8 104.002" xmlns="http://www.w3.org/2000/svg"><g id="svgGroup" stroke-linecap="round" fill-rule="evenodd" font-size="9pt" stroke="#000" stroke-width="0.25mm" fill="#000000" style="stroke:#000;stroke-width:0.25mm;fill:#000000"><path d="M 108 2.402 L 131.2 2.402 L 131.6 4.002 Q 131.779 5.612 132.118 8.022 A 266.983 266.983 0 0 0 132.2 8.602 A 80.276 80.276 0 0 1 132.486 10.843 Q 132.713 12.827 132.9 15.202 Q 133.2 19.002 133.2 22.802 A 330.161 330.161 0 0 1 132.849 38.496 Q 132.482 46.171 131.735 52.81 A 157.344 157.344 0 0 1 130.7 60.402 A 97.903 97.903 0 0 1 128.404 71.019 Q 126.955 76.212 125.011 80.493 A 47.544 47.544 0 0 1 122.5 85.302 A 35.637 35.637 0 0 1 114.427 94.75 A 32.627 32.627 0 0 1 107.4 99.102 A 44.183 44.183 0 0 1 97.666 102.179 Q 93.085 103.096 87.801 103.325 A 83.105 83.105 0 0 1 84.2 103.402 A 36.156 36.156 0 0 1 73.757 101.992 A 25.134 25.134 0 0 1 57.6 87.402 A 31.615 31.615 0 0 1 54.101 93.53 A 23.038 23.038 0 0 1 47.7 99.502 A 21.783 21.783 0 0 1 42.41 101.801 Q 37.356 103.301 30.175 103.396 A 74.122 74.122 0 0 1 29.2 103.402 Q 19.145 103.402 12.746 99.663 A 20.04 20.04 0 0 1 6.8 94.402 Q 1.375 87.221 0.278 75.585 A 65.944 65.944 0 0 1 0 69.402 L 0 2.402 L 22.8 2.402 L 22.8 67.602 Q 22.8 74.361 24.743 79.243 A 20.68 20.68 0 0 0 25.8 81.502 A 9.998 9.998 0 0 0 33.027 86.734 A 15.65 15.65 0 0 0 36 87.002 A 14.762 14.762 0 0 0 47.858 81.454 A 22.132 22.132 0 0 0 50.2 78.002 Q 55.2 69.002 55.2 48.202 L 55.2 2.402 L 77.8 2.402 Q 77.6 17.402 77.6 30.202 Q 77.6 35.802 77.5 41.402 Q 77.4 47.002 77.4 52.002 L 77.4 61.102 L 77.4 67.602 Q 77.4 74.525 79.574 79.479 A 20.006 20.006 0 0 0 80.6 81.502 A 10.518 10.518 0 0 0 88.228 86.773 A 16.004 16.004 0 0 0 91 87.002 A 14.499 14.499 0 0 0 95.996 86.178 A 12.464 12.464 0 0 0 101.9 81.602 A 29.01 29.01 0 0 0 105.084 75.841 Q 106.251 73.066 107.083 69.763 A 54.383 54.383 0 0 0 107.6 67.502 A 100.911 100.911 0 0 0 109.042 58.279 Q 109.564 53.607 109.774 48.399 A 164.426 164.426 0 0 0 109.8 47.702 Q 110.2 36.602 110.2 25.202 A 127.236 127.236 0 0 0 110.083 19.647 A 107.431 107.431 0 0 0 109.9 16.502 A 109.151 109.151 0 0 0 109.575 12.856 Q 109.392 11.146 109.166 9.631 A 63.999 63.999 0 0 0 109.1 9.202 A 220.259 220.259 0 0 1 108.869 7.689 Q 108.65 6.22 108.51 5.123 A 59.432 59.432 0 0 1 108.4 4.202 L 108 2.402 Z M 667.6 2.402 L 690.8 2.402 L 691.2 4.002 Q 691.379 5.612 691.718 8.022 A 266.983 266.983 0 0 0 691.8 8.602 A 80.276 80.276 0 0 1 692.086 10.843 Q 692.313 12.827 692.5 15.202 Q 692.8 19.002 692.8 22.802 A 330.161 330.161 0 0 1 692.449 38.496 Q 692.082 46.171 691.335 52.81 A 157.344 157.344 0 0 1 690.3 60.402 A 97.903 97.903 0 0 1 688.004 71.019 Q 686.555 76.212 684.611 80.493 A 47.544 47.544 0 0 1 682.1 85.302 A 35.637 35.637 0 0 1 674.027 94.75 A 32.627 32.627 0 0 1 667 99.102 A 44.183 44.183 0 0 1 657.266 102.179 Q 652.685 103.096 647.401 103.325 A 83.105 83.105 0 0 1 643.8 103.402 A 36.156 36.156 0 0 1 633.357 101.992 A 25.134 25.134 0 0 1 617.2 87.402 A 31.615 31.615 0 0 1 613.701 93.53 A 23.038 23.038 0 0 1 607.3 99.502 A 21.783 21.783 0 0 1 602.01 101.801 Q 596.956 103.301 589.775 103.396 A 74.122 74.122 0 0 1 588.8 103.402 Q 578.745 103.402 572.346 99.663 A 20.04 20.04 0 0 1 566.4 94.402 Q 560.975 87.221 559.878 75.585 A 65.944 65.944 0 0 1 559.6 69.402 L 559.6 2.402 L 582.4 2.402 L 582.4 67.602 Q 582.4 74.361 584.343 79.243 A 20.68 20.68 0 0 0 585.4 81.502 A 9.998 9.998 0 0 0 592.627 86.734 A 15.65 15.65 0 0 0 595.6 87.002 A 14.762 14.762 0 0 0 607.458 81.454 A 22.132 22.132 0 0 0 609.8 78.002 Q 614.8 69.002 614.8 48.202 L 614.8 2.402 L 637.4 2.402 Q 637.2 17.402 637.2 30.202 Q 637.2 35.802 637.1 41.402 Q 637 47.002 637 52.002 L 637 61.102 L 637 67.602 Q 637 74.525 639.174 79.479 A 20.006 20.006 0 0 0 640.2 81.502 A 10.518 10.518 0 0 0 647.828 86.773 A 16.004 16.004 0 0 0 650.6 87.002 A 14.499 14.499 0 0 0 655.596 86.178 A 12.464 12.464 0 0 0 661.5 81.602 A 29.01 29.01 0 0 0 664.684 75.841 Q 665.851 73.066 666.683 69.763 A 54.383 54.383 0 0 0 667.2 67.502 A 100.911 100.911 0 0 0 668.642 58.279 Q 669.164 53.607 669.374 48.399 A 164.426 164.426 0 0 0 669.4 47.702 Q 669.8 36.602 669.8 25.202 A 127.236 127.236 0 0 0 669.683 19.647 A 107.431 107.431 0 0 0 669.5 16.502 A 109.151 109.151 0 0 0 669.175 12.856 Q 668.992 11.146 668.766 9.631 A 63.999 63.999 0 0 0 668.7 9.202 A 220.259 220.259 0 0 1 668.469 7.689 Q 668.25 6.22 668.11 5.123 A 59.432 59.432 0 0 1 668 4.202 L 667.6 2.402 Z M 214.4 51.202 L 214.4 2.402 L 237.2 2.402 L 237.2 53.802 A 159.169 159.169 0 0 0 237.409 62.212 Q 237.76 68.824 238.7 73.902 A 130.076 130.076 0 0 0 239.767 79.104 Q 240.819 83.721 242 87.002 Q 244.2 93.002 246.8 96.402 L 229 103.602 A 21.148 21.148 0 0 1 226.495 100.837 A 28.34 28.34 0 0 1 224.6 98.002 A 45.485 45.485 0 0 1 223.386 95.719 Q 222.746 94.435 222.092 92.952 A 87.92 87.92 0 0 1 221.3 91.102 A 29.286 29.286 0 0 1 219.893 86.703 Q 219.378 84.553 219.081 82.107 A 49.447 49.447 0 0 1 219 81.402 A 40.607 40.607 0 0 1 213.717 90.078 A 30.475 30.475 0 0 1 203.8 98.202 Q 194 103.202 183.4 103.202 Q 167.6 103.202 160.9 94.002 A 32.003 32.003 0 0 1 156.119 83.979 Q 154.86 79.638 154.427 74.458 A 67.969 67.969 0 0 1 154.2 68.802 L 154.2 2.402 L 177 2.402 L 177 68.402 Q 177 76.802 180 81.602 A 9.724 9.724 0 0 0 186.11 85.933 Q 187.95 86.402 190.2 86.402 A 16.321 16.321 0 0 0 196.744 84.996 A 20.572 20.572 0 0 0 198.9 83.902 A 24.76 24.76 0 0 0 204.14 79.777 A 31.552 31.552 0 0 0 206.7 76.802 A 33.33 33.33 0 0 0 210.363 70.67 A 43.207 43.207 0 0 0 212.3 65.702 A 42.852 42.852 0 0 0 214.08 57.223 A 54.755 54.755 0 0 0 214.4 51.202 Z M 535.4 102.002 L 512.8 102.002 L 512.8 37.402 Q 512.8 31.284 511.209 26.917 A 18.26 18.26 0 0 0 509.8 23.902 Q 506.8 18.802 499.6 18.802 A 18.561 18.561 0 0 0 491.003 20.943 A 21.732 21.732 0 0 0 490.7 21.102 A 22.722 22.722 0 0 0 485.213 25.257 A 28.327 28.327 0 0 0 483 27.802 A 32.109 32.109 0 0 0 479.503 33.524 A 42.248 42.248 0 0 0 477.5 38.502 A 40.428 40.428 0 0 0 475.721 46.737 A 51.912 51.912 0 0 0 475.4 52.602 L 475.4 102.002 L 452.6 102.002 L 452.6 51.602 Q 452.6 42.658 451.711 35.881 A 68.785 68.785 0 0 0 451 31.502 Q 449.925 26.06 448.76 22.017 A 58.766 58.766 0 0 0 447.6 18.402 A 55.84 55.84 0 0 0 445.894 14.361 Q 444.425 11.252 442.8 9.002 L 460.8 1.802 A 31.265 31.265 0 0 1 462.675 4.084 Q 463.738 5.502 464.8 7.202 A 39.68 39.68 0 0 1 466.1 9.691 Q 467.05 11.668 468 14.102 A 47.016 47.016 0 0 1 469.571 18.915 A 62.104 62.104 0 0 1 470.6 23.402 A 40.996 40.996 0 0 1 475.806 14.469 A 31.048 31.048 0 0 1 485.6 6.102 Q 495.4 0.802 506.2 0.802 A 40.08 40.08 0 0 1 514.595 1.622 Q 519.617 2.698 523.346 5.19 A 20.68 20.68 0 0 1 528.5 10.102 Q 534.415 18.074 535.259 30.821 A 66.274 66.274 0 0 1 535.4 35.202 L 535.4 102.002 Z M 325.4 7.802 L 318.6 23.402 Q 314.6 21.602 310.6 20.202 A 91.719 91.719 0 0 0 306.554 18.884 A 117.063 117.063 0 0 0 303.1 17.902 A 31.41 31.41 0 0 0 295.751 16.812 A 29.202 29.202 0 0 0 295 16.802 A 16.096 16.096 0 0 0 291.036 17.269 A 12.63 12.63 0 0 0 287.1 19.002 A 7.109 7.109 0 0 0 283.898 24.154 A 10.363 10.363 0 0 0 283.8 25.602 A 14.744 14.744 0 0 0 288.765 36.575 Q 292.878 40.502 300.4 43.402 A 108.894 108.894 0 0 1 306.995 46.197 A 85.994 85.994 0 0 1 311.6 48.502 A 37.506 37.506 0 0 1 317.137 52.127 A 31.241 31.241 0 0 1 320.1 54.802 Q 323.6 58.402 325.4 63.102 Q 327.088 67.508 327.193 73.409 A 44.393 44.393 0 0 1 327.2 74.202 Q 327.2 79.802 324.9 85.202 Q 322.6 90.602 318.1 94.802 Q 313.6 99.002 307.1 101.502 A 36.986 36.986 0 0 1 298.547 103.62 A 47.826 47.826 0 0 1 292.4 104.002 Q 285.8 104.002 279.4 102.502 Q 273 101.002 267.9 99.202 Q 262.8 97.402 259.8 95.802 L 256.8 94.402 L 264.2 77.602 L 266.8 79.002 Q 269.4 80.602 273.4 82.402 A 82.516 82.516 0 0 0 279.668 84.909 A 95.637 95.637 0 0 0 282 85.702 Q 286.236 87.083 289.794 87.193 A 19.746 19.746 0 0 0 290.4 87.202 A 28.088 28.088 0 0 0 294.053 86.98 Q 298.356 86.414 300.8 84.402 A 8.989 8.989 0 0 0 304.17 77.849 A 11.8 11.8 0 0 0 304.2 77.002 A 13.954 13.954 0 0 0 301.265 68.453 A 18.076 18.076 0 0 0 300.5 67.502 Q 296.8 63.202 289.4 60.402 A 95.635 95.635 0 0 1 280.823 56.719 Q 272.276 52.504 267.639 47.569 A 26.958 26.958 0 0 1 267.3 47.202 A 25.444 25.444 0 0 1 261.138 34.333 A 35.754 35.754 0 0 1 260.6 28.002 Q 260.6 22.402 263.2 17.302 Q 265.8 12.202 270.3 8.302 A 31.868 31.868 0 0 1 278.369 3.246 A 37.945 37.945 0 0 1 281 2.202 A 38.732 38.732 0 0 1 291.708 0.081 A 45.358 45.358 0 0 1 294.4 0.002 Q 300.2 0.002 305.8 1.202 Q 311.4 2.402 315.8 4.002 Q 321 5.802 325.4 7.802 Z M 420.4 13.602 A 30.944 30.944 0 0 0 412.494 6.316 Q 402.672 0.002 387 0.002 A 54.915 54.915 0 0 0 378.2 0.679 A 41.231 41.231 0 0 0 367 4.102 Q 358.4 8.202 352.7 15.302 A 43.672 43.672 0 0 0 348.833 20.993 A 50.588 50.588 0 0 0 344.2 32.102 A 68.035 68.035 0 0 0 342.48 39.697 A 81.399 81.399 0 0 0 341.4 53.202 A 96.62 96.62 0 0 0 341.949 63.737 A 72.089 72.089 0 0 0 343.9 74.402 A 49.088 49.088 0 0 0 345.746 80.003 A 39.338 39.338 0 0 0 351.8 90.402 A 34.058 34.058 0 0 0 353.927 92.768 A 35.37 35.37 0 0 0 365.5 100.502 A 37.305 37.305 0 0 0 366.691 100.98 Q 370.913 102.592 375.897 103.344 A 62.389 62.389 0 0 0 385.2 104.002 A 54.915 54.915 0 0 0 394.001 103.325 A 41.231 41.231 0 0 0 405.2 99.902 Q 413.8 95.802 419.5 88.702 A 43.672 43.672 0 0 0 423.367 83.011 A 50.588 50.588 0 0 0 428 71.902 A 68.072 68.072 0 0 0 429.536 65.375 A 79.084 79.084 0 0 0 430.8 51.002 Q 430.8 38.637 427.993 29.025 A 46.621 46.621 0 0 0 420.4 13.602 Z M 376.551 18.74 A 12.444 12.444 0 0 0 375.5 19.402 Q 371.8 22.002 369.7 26.702 A 33.569 33.569 0 0 0 367.847 32.104 A 46.191 46.191 0 0 0 366.8 37.702 A 100.019 100.019 0 0 0 366.113 45.928 A 120.779 120.779 0 0 0 366 51.202 Q 366 58.602 366.9 65.202 A 44.108 44.108 0 0 0 368.124 71.197 A 32.543 32.543 0 0 0 370.2 76.702 A 20.806 20.806 0 0 0 373.596 81.723 A 18.211 18.211 0 0 0 376.7 84.402 Q 380.505 87 386.29 87.187 A 28.148 28.148 0 0 0 387.2 87.202 Q 392.207 87.202 395.649 85.264 A 12.444 12.444 0 0 0 396.7 84.602 Q 400.4 82.002 402.5 77.302 A 34.047 34.047 0 0 0 404.408 71.713 A 45.775 45.775 0 0 0 405.4 66.402 A 96.769 96.769 0 0 0 406.083 58.368 A 119.615 119.615 0 0 0 406.2 53.002 Q 406.2 45.602 405.3 39.002 Q 404.4 32.402 402 27.402 A 21.078 21.078 0 0 0 398.867 22.591 A 17.866 17.866 0 0 0 395.5 19.602 Q 391.695 17.004 385.91 16.816 A 28.148 28.148 0 0 0 385 16.802 Q 379.993 16.802 376.551 18.74 Z" vector-effect="non-scaling-stroke"/></g></svg>
